<svg xmlns="http://www.w3.org/2000/svg" width="640" height="640"><path fill="#fff" d="M194.941 125.572c10.077 0 19.474 1.938 28.214 5.795 8.729 3.865 16.372 9.067 22.922 15.617 6.55 6.55 11.752 14.28 15.617 23.174 3.857 8.901 5.795 18.389 5.795 28.466v198.993c0 9.408-1.686 18.31-5.04 26.704-3.362 8.398-7.895 15.789-13.6 22.164-5.717 6.385-12.518 11.677-20.406 15.872-7.894 4.203-16.372 6.799-25.438 7.809v43.827h-16.627v-43.827c-9.067-1.01-17.555-3.605-25.442-7.809-7.895-4.195-14.696-9.487-20.402-15.872-5.716-6.374-10.249-13.766-13.604-22.164-3.361-8.394-5.037-17.296-5.037-26.704v-198.994c0-10.077 1.927-19.564 5.795-28.466 3.854-8.894 9.067-16.624 15.617-23.174 6.547-6.55 14.269-11.752 23.174-15.617 8.894-3.857 18.389-5.794 28.462-5.794zm55.921 72.544c0-7.722-1.51-14.937-4.534-21.66-3.023-6.715-7.054-12.597-12.09-17.634-5.04-5.037-10.918-9.067-17.634-12.09-6.723-3.023-13.942-4.533-21.664-4.533-7.729 0-15.034 1.51-21.912 4.533-6.888 3.023-12.849 7.054-17.885 12.09-5.04 5.037-9.07 10.918-12.09 17.634-3.023 6.723-4.537 13.938-4.537 21.66v198.997c0 14.107 4.537 26.369 13.604 36.777 9.067 10.415 20.481 16.8 34.257 19.144v-109.826h16.627v109.825c13.765-2.344 25.187-8.729 34.257-19.144 9.067-10.408 13.6-22.671 13.6-36.777v-198.996z"/><path fill="#fff" d="M363.193 382.8c.405-15.747-3.635-33.108-23.822-33.108-13.727 0-25.437 6.865-31.497 11.707l-3.23-4.841c6.06-4.445 19.381-12.52 35.131-12.52 22.612 0 29.473 16.961 29.473 36.342v62.585h-5.246l-.81-12.921h-.405c-10.092 8.075-22.207 15.341-35.128 15.341-14.937 0-27.858-7.671-27.858-26.04.002-21.604 19.784-31.7 63.392-36.545zm-35.127 56.933c11.71 0 22.207-5.651 35.128-16.556v-35.127c-42.398 4.845-56.93 14.536-56.93 31.092-.001 14.94 10.091 20.591 21.802 20.591z"/><path fill="#fff" d="M409.108 451.444v62.985h-6.056v-167.968h5.25l.806 12.516h.405c9.691-7.671 21.401-14.941 33.512-14.941 26.247 0 38.763 19.381 38.763 49.263 0 32.703-19.786 52.084-42.799 52.084-9.289 0-19.381-4.44-29.881-12.111v18.172zm30.282-11.711c21.001 0 35.937-19.381 35.937-46.433 0-24.632-8.881-43.608-32.707-43.608-10.092 0-20.993 6.056-33.513 16.957v59.759c11.711 9.69 22.613 13.325 30.283 13.325z"/><path fill="#fff" d="M512.051 346.461h6.056v96.502h-6.056v-96.502z"/></svg>